/* XPM */
static char * area_xpm[] = {
"16 16 2 1",
" 	c #000000",
".	c #D02B2B",
"                ",
"                ",
"                ",
"                ",
"       ..       ",
"      ....      ",
"     ......     ",
"    ........    ",
"    ........    ",
"     ......     ",
"      ....      ",
"       ..       ",
"                ",
"                ",
"                ",
"                "};
