/* XPM */
static char * binary_xpm[] = {
"16 15 3 1",
" 	c None",
".	c #9AB6E4",
"+	c #4076D0",
"................",
"...+++.....++...",
"..+...+...+.+...",
"..+...+.....+...",
"..+...+.....+...",
"...+++....++++..",
"................",
"................",
"................",
"...++.....+++...",
"..+.+....+...+..",
"....+....+...+..",
"....+....+...+..",
"..++++....+++...",
"................"};
