/* XPM */
static char * edge_xpm[] = {
"16 16 3 1",
" 	c #000000",
".	c #D02B2B",
"+	c #FFFFFF",
"                ",
"                ",
"                ",
"                ",
"       ..       ",
"      .++.      ",
"     .++++.     ",
"    .++++++.    ",
"    .++++++.    ",
"     .++++.     ",
"      .++.      ",
"       ..       ",
"                ",
"                ",
"                ",
"                "};
