/* XPM */
static char * max_xpm[] = {
"16 16 4 1",
" 	c None",
".	c #000000",
"+	c #D02B2B",
"@	c #FFFFFF",
"................",
"................",
"................",
"................",
"................",
"................",
"+++++@@@@@@+++++",
"....@@@@@@@@....",
"...@@@@@@@@@@...",
"..@@@@@@@@@@@@..",
".@@@@@@@@@@@@@@.",
"@@@@@@@@@@@@@@@@",
"@@@@@@@@@@@@@@@@",
"@@@@@@@@@@@@@@@@",
"@@@@@@@@@@@@@@@@",
"@@@@@@@@@@@@@@@@"};
