/* XPM */
static char * median_xpm[] = {
"16 15 11 1",
" 	c None",
".	c #9AB6E4",
"+	c #4076D0",
"@	c #824C84",
"#	c #B62E4B",
"$	c #B185A6",
"%	c #BE6E88",
"&	c #884A7E",
"*	c #B481A0",
"=	c #8E4778",
"-	c #95416E",
"................",
"..++........++..",
".+..+......+..+.",
".+..+......+..+.",
"..++........++..",
"................",
".......@#$......",
".......%&*......",
".......*&*......",
".......@=-......",
"..++........++..",
".+..+......+..+.",
".+..+......+..+.",
"..++........++..",
"................"};
