/* XPM */
static char * min_xpm[] = {
"16 16 4 1",
" 	c None",
".	c #FFFFFF",
"+	c #000000",
"@	c #D02B2B",
"................",
"................",
"................",
"................",
"................",
"................",
"................",
"+..............+",
"++............++",
"+++..........+++",
"+++++......+++++",
"@@@@@......@@@@@",
"++++++++++++++++",
"++++++++++++++++",
"++++++++++++++++",
"++++++++++++++++"};
