/* XPM */
static char *  text_xpm[]= {
"16 16 3 1",
" 	c #000000",
".	c #E83910",
"+	c #FFFFFF",
"                ",
"                ",
"                ",
" .............. ",
" . +++   ++++ . ",
" .+++++  +   +. ",
" .+   +  +   +. ",
" .+   +  +   +. ",
" .+   +  +++++. ",
" .+++++  +   +. ",
" .+   +  +   +. ",
" .+   +  +   +. ",
" .+   +  ++++ . ",
" .............. ",
"                ",
"                "};
